<mxfile host="app.diagrams.net" agent="Mozilla/5.0 (Windows NT 10.0; Win64; x64) AppleWebKit/537.36 (KHTML, like Gecko) Chrome/129.0.0.0 Safari/537.36" version="24.7.17">
  <diagram name="第 1 页" id="iL0ZIYhNxqJdBKBGuAn-">
    <mxGraphModel dx="1283" dy="1136" grid="1" gridSize="10" guides="1" tooltips="1" connect="1" arrows="1" fold="1" page="1" pageScale="1" pageWidth="1169" pageHeight="827" math="0" shadow="0">
      <root>
        <mxCell id="0" />
        <mxCell id="1" parent="0" />
        <mxCell id="0podaLyMeC9fFMrZwwE8-1" value="Linux下应用程序运维工具(备份、升级、回滚)流程设计：" style="text;html=1;align=center;verticalAlign=middle;resizable=0;points=[];autosize=1;strokeColor=none;fillColor=none;" vertex="1" parent="1">
          <mxGeometry x="80" y="180" width="320" height="30" as="geometry" />
        </mxCell>
        <mxCell id="0podaLyMeC9fFMrZwwE8-2" value="标准产品库" style="rounded=1;whiteSpace=wrap;html=1;" vertex="1" parent="1">
          <mxGeometry x="130" y="240" width="120" height="60" as="geometry" />
        </mxCell>
        <mxCell id="0podaLyMeC9fFMrZwwE8-3" value="标准离线镜像压缩包" style="rounded=1;whiteSpace=wrap;html=1;" vertex="1" parent="1">
          <mxGeometry x="130" y="380" width="120" height="60" as="geometry" />
        </mxCell>
        <mxCell id="0podaLyMeC9fFMrZwwE8-4" value="应用服务器工作节点" style="rounded=0;whiteSpace=wrap;html=1;" vertex="1" parent="1">
          <mxGeometry x="375" y="310" width="120" height="60" as="geometry" />
        </mxCell>
        <mxCell id="0podaLyMeC9fFMrZwwE8-5" style="edgeStyle=orthogonalEdgeStyle;rounded=0;orthogonalLoop=1;jettySize=auto;html=1;exitX=0.5;exitY=1;exitDx=0;exitDy=0;entryX=0.5;entryY=0;entryDx=0;entryDy=0;" edge="1" parent="1" source="0podaLyMeC9fFMrZwwE8-7" target="0podaLyMeC9fFMrZwwE8-14">
          <mxGeometry relative="1" as="geometry" />
        </mxCell>
        <mxCell id="0podaLyMeC9fFMrZwwE8-6" value="重启服务" style="edgeLabel;html=1;align=center;verticalAlign=middle;resizable=0;points=[];" vertex="1" connectable="0" parent="0podaLyMeC9fFMrZwwE8-5">
          <mxGeometry y="-1" relative="1" as="geometry">
            <mxPoint as="offset" />
          </mxGeometry>
        </mxCell>
        <mxCell id="0podaLyMeC9fFMrZwwE8-7" value="执行应用程序升级" style="rounded=0;whiteSpace=wrap;html=1;" vertex="1" parent="1">
          <mxGeometry x="725" y="310" width="120" height="60" as="geometry" />
        </mxCell>
        <mxCell id="0podaLyMeC9fFMrZwwE8-8" style="edgeStyle=orthogonalEdgeStyle;rounded=0;orthogonalLoop=1;jettySize=auto;html=1;exitX=1;exitY=0.5;exitDx=0;exitDy=0;entryX=0;entryY=0.5;entryDx=0;entryDy=0;" edge="1" parent="1" source="0podaLyMeC9fFMrZwwE8-9" target="0podaLyMeC9fFMrZwwE8-7">
          <mxGeometry relative="1" as="geometry" />
        </mxCell>
        <mxCell id="0podaLyMeC9fFMrZwwE8-9" value="执行应用程序备份" style="rounded=0;whiteSpace=wrap;html=1;" vertex="1" parent="1">
          <mxGeometry x="555" y="310" width="120" height="60" as="geometry" />
        </mxCell>
        <mxCell id="0podaLyMeC9fFMrZwwE8-10" style="edgeStyle=orthogonalEdgeStyle;rounded=0;orthogonalLoop=1;jettySize=auto;html=1;exitX=1;exitY=0.5;exitDx=0;exitDy=0;entryX=0;entryY=0.5;entryDx=0;entryDy=0;" edge="1" parent="1" source="0podaLyMeC9fFMrZwwE8-14" target="0podaLyMeC9fFMrZwwE8-15">
          <mxGeometry relative="1" as="geometry" />
        </mxCell>
        <mxCell id="0podaLyMeC9fFMrZwwE8-11" value="是" style="edgeLabel;html=1;align=center;verticalAlign=middle;resizable=0;points=[];" vertex="1" connectable="0" parent="0podaLyMeC9fFMrZwwE8-10">
          <mxGeometry x="0.0286" relative="1" as="geometry">
            <mxPoint as="offset" />
          </mxGeometry>
        </mxCell>
        <mxCell id="0podaLyMeC9fFMrZwwE8-12" style="edgeStyle=orthogonalEdgeStyle;rounded=0;orthogonalLoop=1;jettySize=auto;html=1;exitX=0.5;exitY=1;exitDx=0;exitDy=0;entryX=0.5;entryY=0;entryDx=0;entryDy=0;" edge="1" parent="1" source="0podaLyMeC9fFMrZwwE8-14" target="0podaLyMeC9fFMrZwwE8-19">
          <mxGeometry relative="1" as="geometry" />
        </mxCell>
        <mxCell id="0podaLyMeC9fFMrZwwE8-13" value="否" style="edgeLabel;html=1;align=center;verticalAlign=middle;resizable=0;points=[];" vertex="1" connectable="0" parent="0podaLyMeC9fFMrZwwE8-12">
          <mxGeometry x="-0.098" relative="1" as="geometry">
            <mxPoint as="offset" />
          </mxGeometry>
        </mxCell>
        <mxCell id="0podaLyMeC9fFMrZwwE8-14" value="升级成功？" style="rhombus;whiteSpace=wrap;html=1;" vertex="1" parent="1">
          <mxGeometry x="725" y="450" width="120" height="70" as="geometry" />
        </mxCell>
        <mxCell id="0podaLyMeC9fFMrZwwE8-15" value="升级结束" style="shape=hexagon;perimeter=hexagonPerimeter2;whiteSpace=wrap;html=1;fixedSize=1;" vertex="1" parent="1">
          <mxGeometry x="915" y="452.5" width="100" height="65" as="geometry" />
        </mxCell>
        <mxCell id="0podaLyMeC9fFMrZwwE8-16" style="edgeStyle=orthogonalEdgeStyle;rounded=0;orthogonalLoop=1;jettySize=auto;html=1;entryX=0.5;entryY=1;entryDx=0;entryDy=0;exitX=0;exitY=0.5;exitDx=0;exitDy=0;" edge="1" parent="1" source="0podaLyMeC9fFMrZwwE8-26" target="0podaLyMeC9fFMrZwwE8-20">
          <mxGeometry relative="1" as="geometry">
            <mxPoint x="440" y="602" as="sourcePoint" />
          </mxGeometry>
        </mxCell>
        <mxCell id="0podaLyMeC9fFMrZwwE8-17" value="重新拉取或导入新版应用程序" style="edgeLabel;html=1;align=center;verticalAlign=middle;resizable=0;points=[];" vertex="1" connectable="0" parent="0podaLyMeC9fFMrZwwE8-16">
          <mxGeometry x="-0.2217" y="-1" relative="1" as="geometry">
            <mxPoint as="offset" />
          </mxGeometry>
        </mxCell>
        <mxCell id="0podaLyMeC9fFMrZwwE8-18" style="edgeStyle=orthogonalEdgeStyle;rounded=0;orthogonalLoop=1;jettySize=auto;html=1;exitX=0;exitY=0.5;exitDx=0;exitDy=0;entryX=1;entryY=0.5;entryDx=0;entryDy=0;" edge="1" parent="1" source="0podaLyMeC9fFMrZwwE8-19" target="0podaLyMeC9fFMrZwwE8-26">
          <mxGeometry relative="1" as="geometry" />
        </mxCell>
        <mxCell id="0podaLyMeC9fFMrZwwE8-19" value="&lt;div&gt;寻找升级失败原因&lt;/div&gt;" style="rounded=0;whiteSpace=wrap;html=1;" vertex="1" parent="1">
          <mxGeometry x="725" y="571" width="120" height="60" as="geometry" />
        </mxCell>
        <mxCell id="0podaLyMeC9fFMrZwwE8-20" value="" style="swimlane;startSize=0;" vertex="1" parent="1">
          <mxGeometry x="100" y="230" width="185" height="220" as="geometry" />
        </mxCell>
        <mxCell id="0podaLyMeC9fFMrZwwE8-21" value="" style="endArrow=classic;html=1;rounded=0;exitX=1;exitY=0.5;exitDx=0;exitDy=0;entryX=0;entryY=0.5;entryDx=0;entryDy=0;" edge="1" parent="1" source="0podaLyMeC9fFMrZwwE8-2" target="0podaLyMeC9fFMrZwwE8-4">
          <mxGeometry width="50" height="50" relative="1" as="geometry">
            <mxPoint x="675" y="490" as="sourcePoint" />
            <mxPoint x="725" y="440" as="targetPoint" />
          </mxGeometry>
        </mxCell>
        <mxCell id="0podaLyMeC9fFMrZwwE8-22" value="拉取" style="edgeLabel;html=1;align=center;verticalAlign=middle;resizable=0;points=[];" vertex="1" connectable="0" parent="0podaLyMeC9fFMrZwwE8-21">
          <mxGeometry x="-0.0007" y="1" relative="1" as="geometry">
            <mxPoint as="offset" />
          </mxGeometry>
        </mxCell>
        <mxCell id="0podaLyMeC9fFMrZwwE8-23" value="" style="endArrow=classic;html=1;rounded=0;exitX=1;exitY=0.5;exitDx=0;exitDy=0;" edge="1" parent="1" source="0podaLyMeC9fFMrZwwE8-3">
          <mxGeometry width="50" height="50" relative="1" as="geometry">
            <mxPoint x="675" y="490" as="sourcePoint" />
            <mxPoint x="375" y="340" as="targetPoint" />
          </mxGeometry>
        </mxCell>
        <mxCell id="0podaLyMeC9fFMrZwwE8-24" value="导入" style="edgeLabel;html=1;align=center;verticalAlign=middle;resizable=0;points=[];" vertex="1" connectable="0" parent="0podaLyMeC9fFMrZwwE8-23">
          <mxGeometry x="-0.0183" y="1" relative="1" as="geometry">
            <mxPoint x="4" y="-5" as="offset" />
          </mxGeometry>
        </mxCell>
        <mxCell id="0podaLyMeC9fFMrZwwE8-25" value="" style="endArrow=classic;html=1;rounded=0;exitX=1;exitY=0.5;exitDx=0;exitDy=0;entryX=0;entryY=0.5;entryDx=0;entryDy=0;" edge="1" parent="1" source="0podaLyMeC9fFMrZwwE8-4" target="0podaLyMeC9fFMrZwwE8-9">
          <mxGeometry width="50" height="50" relative="1" as="geometry">
            <mxPoint x="675" y="490" as="sourcePoint" />
            <mxPoint x="725" y="440" as="targetPoint" />
          </mxGeometry>
        </mxCell>
        <mxCell id="0podaLyMeC9fFMrZwwE8-26" value="回滚旧版本" style="rounded=0;whiteSpace=wrap;html=1;" vertex="1" parent="1">
          <mxGeometry x="520" y="571" width="120" height="60" as="geometry" />
        </mxCell>
      </root>
    </mxGraphModel>
  </diagram>
</mxfile>
